<svg id="visual" viewBox="0 0 900 450" width="900" height="450" xmlns="http://www.w3.org/2000/svg" xmlns:xlink="http://www.w3.org/1999/xlink" version="1.1"><g stroke-width="1" stroke-linejoin="bevel"><path d="M475 198L403 201L421 272Z" fill="#193475" stroke="#193475"></path><path d="M421 272L517 309L475 198Z" fill="#003a8c" stroke="#003a8c"></path><path d="M403 201L320 258L421 272Z" fill="#1f1f1f" stroke="#1f1f1f"></path><path d="M421 272L490 384L517 309Z" fill="#24273d" stroke="#24273d"></path><path d="M517 309L571 188L475 198Z" fill="#1f1f1f" stroke="#1f1f1f"></path><path d="M475 198L435 87L403 201Z" fill="#242948" stroke="#242948"></path><path d="M571 188L521 118L475 198Z" fill="#242948" stroke="#242948"></path><path d="M403 201L270 172L320 258Z" fill="#212f5e" stroke="#212f5e"></path><path d="M521 118L435 87L475 198Z" fill="#003a8c" stroke="#003a8c"></path><path d="M517 309L583 305L571 188Z" fill="#003a8c" stroke="#003a8c"></path><path d="M407 389L490 384L421 272Z" fill="#242948" stroke="#242948"></path><path d="M517 309L490 384L583 305Z" fill="#212f5e" stroke="#212f5e"></path><path d="M320 258L407 389L421 272Z" fill="#1e3169" stroke="#1e3169"></path><path d="M697 211L588 128L571 188Z" fill="#193475" stroke="#193475"></path><path d="M571 188L588 128L521 118Z" fill="#24273d" stroke="#24273d"></path><path d="M521 118L478 0L435 87Z" fill="#193475" stroke="#193475"></path><path d="M312 89L270 172L403 201Z" fill="#232c53" stroke="#232c53"></path><path d="M435 87L312 89L403 201Z" fill="#232c53" stroke="#232c53"></path><path d="M207 325L283 340L320 258Z" fill="#242948" stroke="#242948"></path><path d="M320 258L283 340L407 389Z" fill="#242948" stroke="#242948"></path><path d="M490 384L631 333L583 305Z" fill="#232433" stroke="#232433"></path><path d="M583 305L684 230L571 188Z" fill="#232433" stroke="#232433"></path><path d="M407 389L463 450L490 384Z" fill="#1e3169" stroke="#1e3169"></path><path d="M628 450L677 381L631 333Z" fill="#232433" stroke="#232433"></path><path d="M379 450L463 450L407 389Z" fill="#24273d" stroke="#24273d"></path><path d="M224 117L218 186L270 172Z" fill="#212129" stroke="#212129"></path><path d="M270 172L196 234L320 258Z" fill="#232c53" stroke="#232c53"></path><path d="M335 450L379 450L407 389Z" fill="#242948" stroke="#242948"></path><path d="M615 0L478 0L521 118Z" fill="#24273d" stroke="#24273d"></path><path d="M435 87L378 0L312 89Z" fill="#212129" stroke="#212129"></path><path d="M478 0L378 0L435 87Z" fill="#193475" stroke="#193475"></path><path d="M312 89L224 117L270 172Z" fill="#232433" stroke="#232433"></path><path d="M285 0L224 117L312 89Z" fill="#113780" stroke="#113780"></path><path d="M631 333L684 230L583 305Z" fill="#113780" stroke="#113780"></path><path d="M588 128L615 0L521 118Z" fill="#003a8c" stroke="#003a8c"></path><path d="M218 186L196 234L270 172Z" fill="#232c53" stroke="#232c53"></path><path d="M117 292L196 234L86 175Z" fill="#1f1f1f" stroke="#1f1f1f"></path><path d="M283 340L335 450L407 389Z" fill="#003a8c" stroke="#003a8c"></path><path d="M209 450L335 450L283 340Z" fill="#212f5e" stroke="#212f5e"></path><path d="M196 234L207 325L320 258Z" fill="#003a8c" stroke="#003a8c"></path><path d="M761 201L697 211L684 230Z" fill="#212f5e" stroke="#212f5e"></path><path d="M684 230L697 211L571 188Z" fill="#113780" stroke="#113780"></path><path d="M378 0L285 0L312 89Z" fill="#212129" stroke="#212129"></path><path d="M628 450L631 333L490 384Z" fill="#24273d" stroke="#24273d"></path><path d="M631 333L677 381L684 230Z" fill="#232433" stroke="#232433"></path><path d="M724 90L615 0L588 128Z" fill="#1e3169" stroke="#1e3169"></path><path d="M463 450L628 450L490 384Z" fill="#193475" stroke="#193475"></path><path d="M761 201L724 90L697 211Z" fill="#24273d" stroke="#24273d"></path><path d="M697 211L724 90L588 128Z" fill="#232433" stroke="#232433"></path><path d="M137 450L209 450L207 325Z" fill="#242948" stroke="#242948"></path><path d="M207 325L209 450L283 340Z" fill="#212129" stroke="#212129"></path><path d="M828 250L761 201L684 230Z" fill="#1f1f1f" stroke="#1f1f1f"></path><path d="M285 0L211 0L224 117Z" fill="#1f1f1f" stroke="#1f1f1f"></path><path d="M86 175L196 234L218 186Z" fill="#1f1f1f" stroke="#1f1f1f"></path><path d="M86 175L218 186L224 117Z" fill="#113780" stroke="#113780"></path><path d="M196 234L117 292L207 325Z" fill="#003a8c" stroke="#003a8c"></path><path d="M821 0L695 0L724 90Z" fill="#003a8c" stroke="#003a8c"></path><path d="M724 90L695 0L615 0Z" fill="#193475" stroke="#193475"></path><path d="M81 102L86 175L224 117Z" fill="#242948" stroke="#242948"></path><path d="M628 450L735 450L677 381Z" fill="#1f1f1f" stroke="#1f1f1f"></path><path d="M677 381L828 250L684 230Z" fill="#24273d" stroke="#24273d"></path><path d="M70 337L207 325L117 292Z" fill="#212129" stroke="#212129"></path><path d="M70 337L137 450L207 325Z" fill="#212f5e" stroke="#212f5e"></path><path d="M128 0L81 102L224 117Z" fill="#242948" stroke="#242948"></path><path d="M0 236L70 337L117 292Z" fill="#1e3169" stroke="#1e3169"></path><path d="M0 236L117 292L86 175Z" fill="#232c53" stroke="#232c53"></path><path d="M211 0L128 0L224 117Z" fill="#003a8c" stroke="#003a8c"></path><path d="M812 390L828 250L677 381Z" fill="#1e3169" stroke="#1e3169"></path><path d="M761 201L836 68L724 90Z" fill="#1f1f1f" stroke="#1f1f1f"></path><path d="M735 450L812 390L677 381Z" fill="#003a8c" stroke="#003a8c"></path><path d="M900 152L836 68L761 201Z" fill="#232433" stroke="#232433"></path><path d="M0 155L0 236L86 175Z" fill="#193475" stroke="#193475"></path><path d="M70 337L0 450L137 450Z" fill="#242948" stroke="#242948"></path><path d="M0 155L86 175L81 102Z" fill="#003a8c" stroke="#003a8c"></path><path d="M836 68L821 0L724 90Z" fill="#1e3169" stroke="#1e3169"></path><path d="M0 81L0 155L81 102Z" fill="#212129" stroke="#212129"></path><path d="M0 236L0 320L70 337Z" fill="#232433" stroke="#232433"></path><path d="M900 352L900 243L828 250Z" fill="#242948" stroke="#242948"></path><path d="M828 250L900 152L761 201Z" fill="#232c53" stroke="#232c53"></path><path d="M735 450L837 450L812 390Z" fill="#113780" stroke="#113780"></path><path d="M900 352L828 250L812 390Z" fill="#212f5e" stroke="#212f5e"></path><path d="M836 68L900 0L821 0Z" fill="#1e3169" stroke="#1e3169"></path><path d="M0 0L0 81L81 102Z" fill="#003a8c" stroke="#003a8c"></path><path d="M900 243L900 152L828 250Z" fill="#003a8c" stroke="#003a8c"></path><path d="M900 152L900 107L836 68Z" fill="#1e3169" stroke="#1e3169"></path><path d="M900 450L900 352L812 390Z" fill="#232433" stroke="#232433"></path><path d="M0 320L0 450L70 337Z" fill="#232433" stroke="#232433"></path><path d="M128 0L0 0L81 102Z" fill="#232433" stroke="#232433"></path><path d="M837 450L900 450L812 390Z" fill="#24273d" stroke="#24273d"></path><path d="M900 107L900 0L836 68Z" fill="#1e3169" stroke="#1e3169"></path></g></svg>